<?xml version="1.0" encoding="UTF-8" standalone="no"?>
<svg
   xmlns:dc="http://purl.org/dc/elements/1.1/"
   xmlns:cc="http://creativecommons.org/ns#"
   xmlns:rdf="http://www.w3.org/1999/02/22-rdf-syntax-ns#"
   xmlns:svg="http://www.w3.org/2000/svg"
   xmlns="http://www.w3.org/2000/svg"
   xmlns:sodipodi="http://sodipodi.sourceforge.net/DTD/sodipodi-0.dtd"
   xmlns:inkscape="http://www.inkscape.org/namespaces/inkscape"
   id="Capa_1"
   enable-background="new 0 0 512 512"
   height="192"
   viewBox="0 0 192 192"
   width="192"
   version="1.1"
   sodipodi:docname="iconmedium.svg"
   inkscape:version="0.92.5 (2060ec1f9f, 2020-04-08)">
  <metadata
     id="metadata109">
    <rdf:RDF>
      <cc:Work
         rdf:about="">
        <dc:format>image/svg+xml</dc:format>
        <dc:type
           rdf:resource="http://purl.org/dc/dcmitype/StillImage" />
      </cc:Work>
    </rdf:RDF>
  </metadata>
  <defs
     id="defs107" />
  <sodipodi:namedview
     pagecolor="#ffffff"
     bordercolor="#666666"
     borderopacity="1"
     objecttolerance="10"
     gridtolerance="10"
     guidetolerance="10"
     inkscape:pageopacity="0"
     inkscape:pageshadow="2"
     inkscape:window-width="1366"
     inkscape:window-height="704"
     id="namedview105"
     showgrid="false"
     inkscape:zoom="0.4609375"
     inkscape:cx="125.83051"
     inkscape:cy="88.94915"
     inkscape:window-x="0"
     inkscape:window-y="27"
     inkscape:window-maximized="1"
     inkscape:current-layer="Capa_1" />
  <g
     id="g102"
     transform="scale(0.375)">
    <g
       id="g12">
      <g
         id="g10">
        <g
           id="g8">
          <g
             id="g6">
            <g
               id="g4">
              <circle
                 cx="256"
                 cy="256"
                 r="256"
                 id="circle2"
                 style="fill:#4a7aff" />
            </g>
          </g>
        </g>
      </g>
    </g>
    <g
       id="g18"
       style="fill:#0053bf">
      <path
         d="m 70.003,315.591 43.605,43.609 43.451,43.452 109.665,109.128 c 13.038,-0.537 25.825,-2.05 38.289,-4.467 L 135.043,337.33 91.751,294.048 Z"
         id="path14"
         inkscape:connector-curvature="0" />
      <path
         d="m 512,256 c 0,-6.686 -0.257,-13.313 -0.76,-19.87 l -61.48,-61.48 -7.865,12.918 -55.469,-56.847 -45.659,61.214 L 253.429,103.84 72.421,250 325.011,502.59 C 432.874,472.467 512,373.474 512,256 Z"
         id="path16"
         inkscape:connector-curvature="0" />
    </g>
    <g
       id="g22">
      <path
         d="m 283.14,271.43 c 33.814,0 61.225,-27.412 61.225,-61.225 0,-33.814 -27.412,-61.225 -61.225,-61.225 -4.662,0 -9.202,0.521 -13.566,1.508 0.01,-0.501 0.016,-1.004 0.016,-1.508 0,-39.273 -31.837,-71.111 -71.111,-71.111 -32.529,0 -59.956,21.841 -68.417,51.658 -2.228,-0.21 -4.486,-0.318 -6.77,-0.318 -39.273,0 -71.111,31.837 -71.111,71.111 0,39.273 31.838,71.111 71.111,71.111 H 283.14 Z"
         id="path20"
         inkscape:connector-curvature="0"
         style="fill:#a3d4ff" />
    </g>
    <g
       id="g26">
      <path
         d="m 283.14,148.98 c -4.662,0 -9.203,0.521 -13.566,1.508 0.01,-0.502 0.016,-1.004 0.016,-1.508 0,-39.063 -31.5,-70.756 -70.483,-71.095 V 271.43 h 84.033 c 33.814,0 61.225,-27.412 61.225,-61.225 0,-33.814 -27.411,-61.225 -61.225,-61.225 z"
         id="path24"
         inkscape:connector-curvature="0"
         style="fill:#65b1fc" />
    </g>
    <g
       id="g30">
      <path
         d="m 274.741,271.43 c -27.741,0 -50.229,-22.488 -50.229,-50.229 0,-27.741 22.488,-50.229 50.229,-50.229 3.825,0 7.55,0.428 11.129,1.238 -0.009,-0.411 -0.013,-0.824 -0.013,-1.238 0,-32.22 26.119,-58.339 58.339,-58.339 26.686,0 49.188,17.918 56.129,42.38 1.828,-0.173 3.681,-0.261 5.554,-0.261 32.22,0 58.339,26.119 58.339,58.339 0,32.22 -26.119,58.339 -58.339,58.339 z"
         id="path28"
         inkscape:connector-curvature="0"
         style="fill:#dbeeff" />
    </g>
    <g
       id="g34">
      <path
         d="m 405.88,154.752 c -1.873,0 -3.726,0.088 -5.554,0.261 -6.925,-24.402 -29.335,-42.289 -55.936,-42.376 V 271.43 h 61.49 c 32.22,0 58.339,-26.119 58.339,-58.339 0,-32.22 -26.119,-58.339 -58.339,-58.339 z"
         id="path32"
         inkscape:connector-curvature="0"
         style="fill:#a3d4ff" />
    </g>
    <g
       id="g48">
      <g
         id="g38">
        <circle
           cx="80.584"
           cy="304.52399"
           r="15.312"
           id="circle36"
           style="fill:#ffffff" />
      </g>
      <g
         id="g42">
        <circle
           cx="167.99001"
           cy="391.92999"
           transform="matrix(0.16,-0.987,0.987,0.16,-245.788,494.97)"
           id="ellipse40"
           r="15.312"
           style="fill:#ffffff" />
      </g>
      <g
         id="g46">
        <circle
           cx="124.287"
           cy="348.22699"
           r="15.312"
           id="circle44"
           style="fill:#ffffff" />
      </g>
    </g>
    <g
       id="g66">
      <g
         id="g52">
        <circle
           cx="167.99001"
           cy="304.52399"
           r="15.312"
           id="circle50"
           style="fill:#ffffff" />
      </g>
      <g
         id="g56">
        <circle
           cx="255.396"
           cy="391.92999"
           transform="matrix(0.23,-0.973,0.973,0.23,-184.728,550.446)"
           id="ellipse54"
           r="15.312"
           style="fill:#ffffff" />
      </g>
      <g
         id="g60">
        <path
           d="m 270.708,391.93 c 0,-8.35 -6.688,-15.127 -14.997,-15.296 v 30.593 c 8.31,-0.17 14.997,-6.947 14.997,-15.297 z"
           id="path58"
           inkscape:connector-curvature="0"
           style="fill:#e9edf5" />
      </g>
      <g
         id="g64">
        <circle
           cx="211.69299"
           cy="348.22699"
           r="15.312"
           id="circle62"
           style="fill:#ffffff" />
      </g>
    </g>
    <g
       id="g84">
      <g
         id="g70">
        <circle
           cx="255.396"
           cy="304.52399"
           r="15.312"
           id="circle68"
           style="fill:#ffffff" />
      </g>
      <g
         id="g74">
        <path
           d="m 270.708,304.524 c 0,-8.35 -6.688,-15.127 -14.997,-15.296 v 30.593 c 8.31,-0.17 14.997,-6.947 14.997,-15.297 z"
           id="path72"
           inkscape:connector-curvature="0"
           style="fill:#e9edf5" />
      </g>
      <g
         id="g78">
        <circle
           cx="342.802"
           cy="391.92999"
           transform="matrix(0.707,-0.707,0.707,0.707,-176.732,357.191)"
           id="ellipse76"
           r="15.312"
           style="fill:#e9edf5" />
      </g>
      <g
         id="g82">
        <circle
           cx="299.099"
           cy="348.22699"
           r="15.312"
           id="circle80"
           style="fill:#e9edf5" />
      </g>
    </g>
    <g
       id="g94">
      <g
         id="g88">
        <circle
           cx="342.802"
           cy="304.52399"
           r="15.312"
           id="circle86"
           style="fill:#e9edf5" />
      </g>
      <g
         id="g92">
        <circle
           cx="386.505"
           cy="348.22699"
           r="15.312"
           id="circle90"
           style="fill:#e9edf5" />
      </g>
    </g>
    <g
       id="g100">
      <g
         id="g98">
        <circle
           cx="430.20801"
           cy="304.52399"
           r="15.312"
           id="circle96"
           style="fill:#e9edf5" />
      </g>
    </g>
  </g>
</svg>
