<svg id="Capa_1" enable-background="new 0 0 512 512" height="512" viewBox="0 0 512 512" width="512" xmlns="http://www.w3.org/2000/svg"><g><g><g><g><g><g><circle cx="256" cy="256" fill="#4a7aff" r="256"/></g></g></g></g></g><g fill="#0053bf"><path d="m70.003 315.591 43.605 43.609 43.451 43.452 109.665 109.128c13.038-.537 25.825-2.05 38.289-4.467l-169.97-169.983-43.292-43.282z"/><path d="m512 256c0-6.686-.257-13.313-.76-19.87l-61.48-61.48-7.865 12.918-55.469-56.847-45.659 61.214-87.338-88.095-181.008 146.16 252.59 252.59c107.863-30.123 186.989-129.116 186.989-246.59z"/></g><g><path d="m283.14 271.43c33.814 0 61.225-27.412 61.225-61.225 0-33.814-27.412-61.225-61.225-61.225-4.662 0-9.202.521-13.566 1.508.01-.501.016-1.004.016-1.508 0-39.273-31.837-71.111-71.111-71.111-32.529 0-59.956 21.841-68.417 51.658-2.228-.21-4.486-.318-6.77-.318-39.273 0-71.111 31.837-71.111 71.111 0 39.273 31.838 71.111 71.111 71.111h159.848z" fill="#a3d4ff"/></g><g><path d="m283.14 148.98c-4.662 0-9.203.521-13.566 1.508.01-.502.016-1.004.016-1.508 0-39.063-31.5-70.756-70.483-71.095v193.545h84.033c33.814 0 61.225-27.412 61.225-61.225 0-33.814-27.411-61.225-61.225-61.225z" fill="#65b1fc"/></g><g><path d="m274.741 271.43c-27.741 0-50.229-22.488-50.229-50.229s22.488-50.229 50.229-50.229c3.825 0 7.55.428 11.129 1.238-.009-.411-.013-.824-.013-1.238 0-32.22 26.119-58.339 58.339-58.339 26.686 0 49.188 17.918 56.129 42.38 1.828-.173 3.681-.261 5.554-.261 32.22 0 58.339 26.119 58.339 58.339s-26.119 58.339-58.339 58.339z" fill="#dbeeff"/></g><g><path d="m405.88 154.752c-1.873 0-3.726.088-5.554.261-6.925-24.402-29.335-42.289-55.936-42.376v158.793h61.49c32.22 0 58.339-26.119 58.339-58.339s-26.119-58.339-58.339-58.339z" fill="#a3d4ff"/></g><g><g><circle cx="80.584" cy="304.524" fill="#fff" r="15.312"/></g><g><ellipse cx="167.99" cy="391.93" fill="#fff" rx="15.312" ry="15.312" transform="matrix(.16 -.987 .987 .16 -245.788 494.97)"/></g><g><circle cx="124.287" cy="348.227" fill="#fff" r="15.312"/></g></g><g><g><circle cx="167.99" cy="304.524" fill="#fff" r="15.312"/></g><g><ellipse cx="255.396" cy="391.93" fill="#fff" rx="15.312" ry="15.312" transform="matrix(.23 -.973 .973 .23 -184.728 550.446)"/></g><g><path d="m270.708 391.93c0-8.35-6.688-15.127-14.997-15.296v30.593c8.31-.17 14.997-6.947 14.997-15.297z" fill="#e9edf5"/></g><g><circle cx="211.693" cy="348.227" fill="#fff" r="15.312"/></g></g><g><g><circle cx="255.396" cy="304.524" fill="#fff" r="15.312"/></g><g><path d="m270.708 304.524c0-8.35-6.688-15.127-14.997-15.296v30.593c8.31-.17 14.997-6.947 14.997-15.297z" fill="#e9edf5"/></g><g><ellipse cx="342.802" cy="391.93" fill="#e9edf5" rx="15.312" ry="15.312" transform="matrix(.707 -.707 .707 .707 -176.732 357.191)"/></g><g><circle cx="299.099" cy="348.227" fill="#e9edf5" r="15.312"/></g></g><g><g><circle cx="342.802" cy="304.524" fill="#e9edf5" r="15.312"/></g><g><circle cx="386.505" cy="348.227" fill="#e9edf5" r="15.312"/></g></g><g><g><circle cx="430.208" cy="304.524" fill="#e9edf5" r="15.312"/></g></g></g></svg>